<svg xmlns="http://www.w3.org/2000/svg" viewBox="0 0 123 123"><defs><style>.cls-1{fill:#b1001e;}.cls-2{fill:none;stroke:#fff;stroke-miterlimit:10;stroke-width:3px;}.cls-3{fill:#fff;}</style></defs><g id="レイヤー_2" data-name="レイヤー 2"><g id="レイヤー_4" data-name="レイヤー 4"><circle class="cls-1" cx="61.5" cy="61.5" r="60"/><circle class="cls-2" cx="61.5" cy="61.5" r="60"/><path class="cls-3" d="M56.1,65.16a3.42,3.42,0,0,0-1.92-.58,3.34,3.34,0,0,0-1.34.27,3.42,3.42,0,0,0-1.52,1.24A3.38,3.38,0,0,0,50.74,68,3.18,3.18,0,0,0,51,69.36a3.4,3.4,0,0,0,1.24,1.51,3.46,3.46,0,0,0,1.93.59,3.38,3.38,0,0,0,1.34-.27A3.46,3.46,0,0,0,57.62,68a3.44,3.44,0,0,0-1.52-2.86Zm-.64,3.4a1.45,1.45,0,0,1-.51.61,1.35,1.35,0,0,1-.77.24,1.33,1.33,0,0,1-.54-.11,1.38,1.38,0,0,1-.61-.51,1.35,1.35,0,0,1-.24-.77,1.33,1.33,0,0,1,.11-.54,1.36,1.36,0,0,1,.5-.61,1.38,1.38,0,0,1,.78-.24,1.41,1.41,0,0,1,1.28,1.93Z"/><path class="cls-3" d="M75,65.16a3.45,3.45,0,0,0-1.92-.58,3.39,3.39,0,0,0-1.35.27A3.43,3.43,0,0,0,69.61,68a3.52,3.52,0,0,0,.27,1.34,3.46,3.46,0,0,0,3.18,2.1,3.38,3.38,0,0,0,1.34-.27,3.47,3.47,0,0,0,1.51-1.25A3.41,3.41,0,0,0,76.5,68a3.52,3.52,0,0,0-.27-1.34A3.57,3.57,0,0,0,75,65.16Zm-.65,3.4a1.39,1.39,0,0,1-1.27.85,1.33,1.33,0,0,1-.54-.11,1.4,1.4,0,0,1-.62-.51,1.39,1.39,0,0,1,1.15-2.16,1.39,1.39,0,0,1,1.16.61,1.41,1.41,0,0,1,.12,1.32Z"/><path class="cls-3" d="M81.69,32.47a2.49,2.49,0,0,0-1.93-.92H47.23l-1.11-3.81h0a4.87,4.87,0,0,0-3.64-3.36l-4-.85A1.25,1.25,0,1,0,38,26l4,.85a2.37,2.37,0,0,1,1.78,1.64l7.27,25a3.62,3.62,0,0,0-.48.25,5,5,0,0,0-1.83,1.89,5.21,5.21,0,0,0-.64,2.4h0v.13h0a5.35,5.35,0,0,0,.4,1.88,5.22,5.22,0,0,0,4.77,3.16H76.59a1.25,1.25,0,0,0,0-2.5H53.22a2.51,2.51,0,0,1-1-.21,2.57,2.57,0,0,1-1.06-4,2.61,2.61,0,0,1,.68-.59,3.17,3.17,0,0,1,1-.37l23.5-3.83a3.74,3.74,0,0,0,3.06-2.95l2.88-14.13h0a2.72,2.72,0,0,0,.05-.49A2.49,2.49,0,0,0,81.69,32.47ZM57.81,50.15a1.32,1.32,0,0,1-1.64-.89L52.75,37.54a1.32,1.32,0,0,1,2.54-.74l3.42,11.72A1.32,1.32,0,0,1,57.81,50.15Zm5.53-.87a1.32,1.32,0,0,1-1.64-.89L58.53,37.52a1.32,1.32,0,1,1,2.53-.74l3.18,10.87A1.32,1.32,0,0,1,63.34,49.28Zm5.54-.84a1.33,1.33,0,0,1-1.64-.9l-2.93-10a1.32,1.32,0,1,1,2.53-.74l2.93,10A1.32,1.32,0,0,1,68.88,48.44Zm5.52-.9a1.33,1.33,0,0,1-1.64-.9l-2.68-9.16a1.32,1.32,0,0,1,2.54-.74L75.3,45.9A1.33,1.33,0,0,1,74.4,47.54Z"/><path class="cls-3" d="M27.05,94.34a12.9,12.9,0,0,1-2.38,4.48,12.18,12.18,0,0,0-1.76-1.16A9.49,9.49,0,0,0,25,93.88Zm3.05-.6H24V80.84H30.1ZM28,82.72H26v1.84h2Zm0,3.62H26V88.2h2ZM28,90H26v1.88h2Zm1.06,3.88a18.25,18.25,0,0,1,1.72,3.22L29,98a17.33,17.33,0,0,0-1.64-3.38Zm12.66,1.72h-.92v1.06c0,1-.2,1.5-.86,1.82a7.15,7.15,0,0,1-2.9.34,7.29,7.29,0,0,0-.62-1.9c.78,0,1.64,0,1.88,0s.34-.08.34-.3v-1H33.52V98.8H31.44V95.56H30.36V93.9h1.08v-5H35V88.1H30.46V86.42H33v-.78h-1.7V84.06H33v-.74H30.8V81.64H33V80.12H35v1.52h2V80.12H39.2v1.52h2.16v1.68H39.2v.74h1.86v1.58H39.2v.78h2.52V88.1H37.1v.76h3.72v5h.92Zm-8.22-5v.92H35v-.92Zm0,3.38H35v-1H33.52ZM35,84.06h2v-.74H35Zm0,2.36h2v-.78H35Zm2.06,4.1v.92h1.56v-.92Zm1.56,3.38v-1H37.1v1Z"/><path class="cls-3" d="M54.52,81.22c0,3.78.54,11.08,7.9,15.42a12.8,12.8,0,0,0-1.92,2.08,16.9,16.9,0,0,1-7.36-9.86c-1.5,4.48-3.9,7.8-7.39,9.88a19,19,0,0,0-2.18-1.94c4.16-2.1,6.55-6,7.65-11.22l1.22.22c-.14-.76-.22-1.48-.28-2.16H47.59V81.22Z"/><path class="cls-3" d="M80.32,85.62c-1.2-.06-3.07-.1-5.75-.1,0,1,0,2.08,0,2.94a4.88,4.88,0,0,1,.74,2.74c0,2.58-1.52,5.86-6.36,7.22l-2.1-2.12A9.05,9.05,0,0,0,71.71,94a4.28,4.28,0,0,1-.9.1,3.49,3.49,0,0,1-3.42-3.64,3.73,3.73,0,0,1,4-3.7,4.75,4.75,0,0,1,.78.06l0-1.32c-3,0-6.06.16-8.5.3l-.06-2.4c2.26,0,5.86-.1,8.52-.14a5.08,5.08,0,0,0,0-.6A13.4,13.4,0,0,0,71.87,81h2.88c-.06.32-.12,1.38-.14,1.7,0,.16,0,.36,0,.6,2,0,4.71,0,5.75,0Zm-9,6.32c.82,0,1.56-.62,1.3-2.34a1.41,1.41,0,0,0-1.3-.7,1.52,1.52,0,1,0,0,3Z"/><path class="cls-3" d="M95.83,83.32q-.72.45-1.38.9c-1.06.74-3.14,2.5-4.38,3.5a6.66,6.66,0,0,1,1.86-.22c3.36,0,5.92,2.1,5.92,5,0,3.12-2.38,5.6-7.16,5.6-2.76,0-4.84-1.26-4.84-3.24a3.33,3.33,0,0,1,3.56-3.08,4,4,0,0,1,4.22,3.38,2.89,2.89,0,0,0,1.62-2.7c0-1.78-1.8-3-4.1-3-3,0-5,1.62-7.14,4l-1.8-1.86c1.4-1.14,3.78-3.16,5-4.12s3.16-2.58,4.14-3.44c-1,0-3.74.14-4.78.22a13.07,13.07,0,0,0-1.62.16l-.08-2.58c.56.06,1.24.1,1.8.1,1,0,5.28-.1,6.4-.2a9.55,9.55,0,0,0,1.52-.2ZM91.35,95.78c-.12-1.28-.86-2.12-1.94-2.12-.74,0-1.22.44-1.22.94,0,.74.84,1.24,2,1.24A10.44,10.44,0,0,0,91.35,95.78Z"/></g></g></svg>