<svg xmlns="http://www.w3.org/2000/svg" xmlns:xlink="http://www.w3.org/1999/xlink" viewBox="0 0 399.29 396.78"><defs><style>.cls-1{fill:#651815;}.cls-2{fill:#fff;}.cls-3{fill:url(#名称未設定グラデーション_118);}.cls-4{fill:url(#名称未設定グラデーション_118-2);}.cls-5{fill:url(#名称未設定グラデーション_118-3);}</style><radialGradient id="名称未設定グラデーション_118" cx="-1399.1" cy="-79.12" r="55.99" gradientTransform="matrix(-0.71, -0.71, -0.71, 0.71, -746.02, -825.77)" gradientUnits="userSpaceOnUse"><stop offset="0" stop-color="#e9ddc9"/><stop offset="0.62" stop-color="#e9dfcd"/><stop offset="0.71" stop-color="#eae4da"/><stop offset="0.77" stop-color="#eae4dc"/><stop offset="1" stop-color="#ead4ca"/></radialGradient><radialGradient id="名称未設定グラデーション_118-2" cx="-1399.35" cy="63.38" r="55.99" xlink:href="#名称未設定グラデーション_118"/><radialGradient id="名称未設定グラデーション_118-3" cx="-1399.6" cy="205.88" r="55.99" xlink:href="#名称未設定グラデーション_118"/></defs><g id="レイヤー_2" data-name="レイヤー 2"><g id="レイヤー_1-2" data-name="レイヤー 1"><path class="cls-1" d="M301.79,10c20.43,0,39.22,13.7,54.12,25.42,20.39,16,33.42,45.93,33.38,73.89-.11,80.15-39.12,75.9-87.5,75.9s-103.07-7.46-87.6-87.61c3.39-17.6,5.38-27.88,14.62-41.77C244.51,32.25,271.34,10,301.79,10Z"/><path class="cls-2" d="M301.79,10c20.43,0,39.22,13.7,54.12,25.42,20.39,16,33.42,45.93,33.38,73.89-.1,72.46-32,75.94-73.87,75.94-4.44,0-9,0-13.63,0-48.38,0-103.07-7.46-87.6-87.61,3.39-17.6,5.38-27.88,14.62-41.77,15.7-23.58,42.53-45.83,73-45.83m0-10c-16,0-32.49,5.47-47.66,15.81a127.41,127.41,0,0,0-33.64,34.48c-10.36,15.57-12.65,27.44-16.12,45.42-3.11,16.11-3.67,30.42-1.67,42.56,2,11.81,6.36,21.94,13.11,30.13,19.51,23.62,54.41,26.81,86,26.81l6.92,0,6.71,0c21.9,0,42.86-1,58.6-12.8,17.19-12.9,25.22-36.14,25.27-73.13a112.08,112.08,0,0,0-9.9-45.51c-6.67-14.91-16.11-27.45-27.3-36.25C345.14,14.23,325.1,0,301.79,0Z"/><path class="cls-3" d="M299.37,44.89c14.47,0,28.34,17.27,38,26.57,10.13,9.77,15.69,30.72,15.69,45.9,0,29.65-23.29,41.08-52.93,41.08s-59.8-7.53-53.68-53.68C250.33,75.36,269.72,44.89,299.37,44.89Z"/><path class="cls-1" d="M201,110.76c20.42,0,39.22,13.7,54.12,25.42,20.39,16,33.41,45.94,33.37,73.89-.1,80.15-39.11,75.9-87.49,75.9S98,278.52,113.42,198.37c3.4-17.6,5.39-27.89,14.63-41.77C143.75,133,170.57,110.76,201,110.76Z"/><path class="cls-2" d="M201,110.76c20.42,0,39.22,13.7,54.12,25.42,20.39,16,33.41,45.94,33.37,73.89-.09,72.47-32,75.94-73.86,75.94-4.44,0-9,0-13.63,0-48.38,0-103.07-7.45-87.61-87.6,3.4-17.6,5.39-27.89,14.63-41.77,15.7-23.59,42.52-45.84,73-45.84m0-10c-16,0-32.5,5.47-47.66,15.82a127.12,127.12,0,0,0-33.64,34.48c-10.36,15.56-12.66,27.44-16.13,45.41-3.1,16.11-3.66,30.43-1.66,42.56,2,11.81,6.36,22,13.11,30.13C134.56,292.79,169.46,296,201,296l6.92,0,6.71,0c21.9,0,42.86-1,58.6-12.8,17.19-12.9,25.21-36.14,25.26-73.12a112.23,112.23,0,0,0-9.89-45.51c-6.67-14.92-16.11-27.46-27.3-36.26-16.95-13.33-37-27.56-60.3-27.56Z"/><path class="cls-4" d="M198.61,145.66c14.46,0,28.33,17.27,38,26.57,10.13,9.76,15.69,30.71,15.69,45.9,0,29.64-23.29,41.07-52.94,41.07s-59.79-7.52-53.68-53.68C149.56,176.13,169,145.66,198.61,145.66Z"/><path class="cls-1" d="M100.26,211.53c20.43,0,39.22,13.7,54.12,25.42,20.39,16,33.42,45.93,33.38,73.89-.11,80.15-39.11,75.9-87.5,75.9s-103.07-7.46-87.6-87.61c3.4-17.6,5.38-27.89,14.63-41.77C43,233.78,69.81,211.53,100.26,211.53Z"/><path class="cls-2" d="M100.26,211.53c20.43,0,39.22,13.7,54.12,25.42,20.39,16,33.42,45.93,33.38,73.89-.1,72.46-32,75.94-73.87,75.94-4.44,0-9,0-13.63,0-48.38,0-103.07-7.46-87.6-87.61,3.4-17.6,5.38-27.89,14.63-41.77,15.7-23.58,42.52-45.83,73-45.83m0-10c-16,0-32.49,5.47-47.65,15.81A127.15,127.15,0,0,0,19,251.82C8.6,267.38,6.31,279.26,2.84,297.24c-3.11,16.1-3.67,30.42-1.67,42.56,2,11.81,6.36,21.94,13.12,30.12,19.5,23.63,54.4,26.82,86,26.82l6.92,0,6.71,0c21.9,0,42.86-1,58.61-12.8,17.18-12.91,25.21-36.14,25.26-73.13a112.08,112.08,0,0,0-9.9-45.51c-6.67-14.92-16.11-27.45-27.3-36.25-16.95-13.34-37-27.56-60.3-27.56Z"/><path class="cls-5" d="M97.84,246.42c14.47,0,28.34,17.27,38,26.57,10.14,9.77,15.7,30.72,15.7,45.9,0,29.65-23.29,41.07-52.94,41.07s-59.79-7.52-53.68-53.68C48.8,276.89,68.2,246.42,97.84,246.42Z"/></g></g></svg>